<?xml version="1.0" standalone="no"?>
<!DOCTYPE svg PUBLIC "-//W3C//DTD SVG 20010904//EN"
 "http://www.w3.org/TR/2001/REC-SVG-20010904/DTD/svg10.dtd">
<svg version="1.0" xmlns="http://www.w3.org/2000/svg"
 width="94.000000pt" height="94.000000pt" viewBox="0 0 94.000000 94.000000"
 preserveAspectRatio="xMidYMid meet">
<metadata>
Created by potrace 1.14, written by Peter Selinger 2001-2017
</metadata>
<g transform="translate(0.000000,94.000000) scale(0.100000,-0.100000)"
fill="#000000" stroke="none">
<path d="M389 935 c-1 -5 -3 -16 -3 -24 -1 -7 -24 -28 -52 -46 l-50 -33 -39
19 c-53 26 -61 20 -26 -21 l29 -35 -19 -31 c-22 -36 -49 -136 -44 -162 15 -78
12 -85 -42 -122 -29 -19 -52 -38 -53 -42 0 -8 48 -2 92 12 17 5 31 4 41 -3 8
-7 65 -104 126 -217 108 -197 137 -239 152 -223 4 5 30 51 59 103 29 52 64
115 78 140 13 25 38 70 54 100 62 115 65 119 101 114 17 -3 38 -7 45 -9 25 -9
11 13 -23 36 -32 22 -35 28 -31 59 12 83 9 116 -17 171 -15 31 -27 59 -27 63
0 4 14 27 30 52 17 24 28 44 25 44 -3 0 -27 -11 -54 -24 l-48 -25 -29 20 c-16
11 -39 24 -51 29 -13 6 -23 18 -23 30 0 22 -15 27 -23 7 -3 -8 -27 -12 -76
-12 -58 1 -73 4 -86 20 -8 11 -15 16 -16 10z"/>
</g>
</svg>
